<?xml version="1.0" encoding="UTF-8" standalone="no"?>
<svg
   xmlns:dc="http://purl.org/dc/elements/1.1/"
   xmlns:cc="http://creativecommons.org/ns#"
   xmlns:rdf="http://www.w3.org/1999/02/22-rdf-syntax-ns#"
   xmlns:svg="http://www.w3.org/2000/svg"
   xmlns="http://www.w3.org/2000/svg"
   xmlns:xlink="http://www.w3.org/1999/xlink"
   xmlns:sodipodi="http://sodipodi.sourceforge.net/DTD/sodipodi-0.dtd"
   xmlns:inkscape="http://www.inkscape.org/namespaces/inkscape"
   width="85.473007mm"
   height="106.19775mm"
   viewBox="0 0 85.473006 106.19775"
   version="1.1"
   id="svg8"
   inkscape:version="1.0.2 (e86c870879, 2021-01-15)"
   sodipodi:docname="shapeblob.svg">
  <defs
     id="defs2">
    <linearGradient
       inkscape:collect="always"
       id="linearGradient1237">
      <stop
         style="stop-color:#552200;stop-opacity:1"
         offset="0"
         id="stop1233" />
      <stop
         style="stop-color:#000000;stop-opacity:0;"
         offset="1"
         id="stop1235" />
    </linearGradient>
    <linearGradient
       inkscape:collect="always"
       id="linearGradient1217">
      <stop
         style="stop-color:#000000;stop-opacity:1;"
         offset="0"
         id="stop1213" />
      <stop
         style="stop-color:#000000;stop-opacity:0;"
         offset="1"
         id="stop1215" />
    </linearGradient>
    <marker
       style="overflow:visible"
       id="DotL"
       refX="0"
       refY="0"
       orient="auto"
       inkscape:stockid="DotL"
       inkscape:isstock="true">
      <path
         transform="matrix(0.8,0,0,0.8,5.92,0.8)"
         style="fill:#ff6600;fill-opacity:1;fill-rule:evenodd;stroke:#ff6600;stroke-width:1pt;stroke-opacity:1"
         d="m -2.5,-1 c 0,2.76 -2.24,5 -5,5 -2.76,0 -5,-2.24 -5,-5 0,-2.76 2.24,-5 5,-5 2.76,0 5,2.24 5,5 z"
         id="path990" />
    </marker>
    <linearGradient
       inkscape:collect="always"
       xlink:href="#linearGradient1217"
       id="linearGradient1219"
       x1="52.889629"
       y1="62.151836"
       x2="72.454376"
       y2="95.227371"
       gradientUnits="userSpaceOnUse"
       gradientTransform="translate(-8.0659477,1.2775806)" />
    <radialGradient
       inkscape:collect="always"
       xlink:href="#linearGradient1237"
       id="radialGradient1231"
       cx="51.140106"
       cy="50.346745"
       fx="51.140106"
       fy="50.346745"
       r="6.1498661"
       gradientTransform="matrix(2.4234745,0.40628677,-0.29155328,1.739097,-57.87131,-56.990004)"
       gradientUnits="userSpaceOnUse" />
  </defs>
  <sodipodi:namedview
     id="base"
     pagecolor="#ffffff"
     bordercolor="#666666"
     borderopacity="1.0"
     inkscape:pageopacity="0.0"
     inkscape:pageshadow="2"
     inkscape:zoom="1.979899"
     inkscape:cx="160.99607"
     inkscape:cy="198.09421"
     inkscape:document-units="mm"
     inkscape:current-layer="layer1"
     inkscape:document-rotation="0"
     showgrid="false"
     inkscape:window-width="1920"
     inkscape:window-height="1039"
     inkscape:window-x="0"
     inkscape:window-y="380"
     inkscape:window-maximized="0" />
  <metadata
     id="metadata5">
    <rdf:RDF>
      <cc:Work
         rdf:about="">
        <dc:format>image/svg+xml</dc:format>
        <dc:type
           rdf:resource="http://purl.org/dc/dcmitype/StillImage" />
        <dc:title />
      </cc:Work>
    </rdf:RDF>
  </metadata>
  <g
     inkscape:label="Ebene 1"
     inkscape:groupmode="layer"
     id="layer1"
     transform="translate(-1.4217843,-28.088399)">
    <path
       style="fill:#000000;fill-opacity:1;stroke:none;stroke-width:0.264583px;stroke-linecap:butt;stroke-linejoin:miter;stroke-opacity:1"
       d="M 24.126599,64.043557 C 17.779304,71.357764 -0.55420111,83.198549 1.5960959,104.52843 3.5484513,123.89483 16.323923,132.73556 36.049223,134.12142 56.627,135.56717 78.883203,127.42848 84.232121,112.36879 89.137547,98.557737 88.089977,84.960106 74.053602,67.866577 72.623078,66.124482 85.04322,42.66517 65.080442,31.183916 52.6359,24.026648 39.838572,31.463396 35.551491,31.895629 c -2.584263,0.260551 -3.263277,-0.32838 -5.8133,0.165265 -4.626283,0.895577 -6.544318,2.593204 -9.356717,5.219643 -1.277541,1.193068 -4.988113,1.725179 -5.755638,3.295666 -0.769281,1.574082 -0.253263,4.172127 1.225905,5.111056 1.525348,0.968242 3.619499,-0.45505 5.307496,-1.099134 2.440897,-0.931366 7.336097,-6.001633 6.14693,-3.675412 -2.559503,5.006843 -3.666437,4.083625 -4.16846,11.023545 -0.526679,7.280755 3.664398,9.024221 0.988892,12.107299 z"
       id="path917"
       sodipodi:nodetypes="sssssssssssssss" />
    <path
       style="fill:#28170b;stroke:#ffffff;stroke-width:2.065;stroke-linecap:butt;stroke-linejoin:miter;stroke-miterlimit:4;stroke-dasharray:none;stroke-opacity:1"
       d="M 29.603199,65.192244 C -11.467142,92.729319 4.8725286,127.75466 31.998497,130.9034 69.186499,135.22013 103.89384,108.36736 69.490674,67.846475 89.095517,13.961149 9.4259218,26.137987 29.603199,65.192244 Z"
       id="path66"
       sodipodi:nodetypes="cscc" />
    <path
       style="fill:none;stroke:#ff6600;stroke-width:2.565;stroke-linecap:round;stroke-linejoin:miter;stroke-miterlimit:4;stroke-dasharray:none;stroke-opacity:1"
       d="M 43.759973,40.060106 C 28.202831,28.743592 25.381863,41.234071 16.781027,42.920578"
       id="path927"
       sodipodi:nodetypes="cc" />
    <path
       sodipodi:type="star"
       style="fill:#552200;fill-rule:evenodd;stroke-width:0.264583"
       id="path41"
       sodipodi:sides="7"
       sodipodi:cx="45.097054"
       sodipodi:cy="95.999207"
       sodipodi:r1="31.433001"
       sodipodi:r2="26.88962"
       sodipodi:arg1="0.10418649"
       sodipodi:arg2="0.55298543"
       inkscape:flatsided="true"
       inkscape:rounded="0"
       inkscape:randomized="0"
       d="m 76.359609,99.268179 -14.326457,23.211251 -27.079684,3.2711 -19.441357,-19.13225 2.836708,-27.12863 22.978674,-14.696596 25.81723,8.802274 z"
       inkscape:transform-center-x="-1.452983"
       inkscape:transform-center-y="-0.025448075" />
    <path
       sodipodi:type="star"
       style="fill:#784421;stroke-width:0.264583"
       id="path43"
       sodipodi:sides="5"
       sodipodi:cx="49.006153"
       sodipodi:cy="53.374615"
       sodipodi:r1="17.932951"
       sodipodi:r2="15.43393"
       sodipodi:arg1="-2.7041574"
       sodipodi:arg2="-2.0758389"
       inkscape:flatsided="true"
       inkscape:rounded="0"
       inkscape:randomized="0"
       d="M 32.761749,45.777901 51.21126,35.577755 66.613389,49.972264 57.682916,69.068707 36.761452,66.476448 Z"
       inkscape:transform-center-x="0.057878275"
       inkscape:transform-center-y="0.79169494" />
    <ellipse
       style="fill:url(#linearGradient1219);fill-opacity:1;stroke:none;stroke-width:2.565;stroke-linecap:round;stroke-miterlimit:4;stroke-dasharray:none"
       id="path1211"
       cx="44.989376"
       cy="96.504951"
       rx="27.769699"
       ry="15.811343" />
    <rect
       style="fill:url(#radialGradient1231);fill-opacity:1;stroke:none;stroke-width:2.565;stroke-linecap:round;stroke-miterlimit:4;stroke-dasharray:none"
       id="rect1223"
       width="43.110104"
       height="29.018522"
       x="29.774731"
       y="36.920551"
       ry="0" />
    <path
       sodipodi:type="spiral"
       style="fill:none;fill-rule:evenodd;stroke:#000000;stroke-width:1.5;stroke-linecap:round;stroke-miterlimit:4;stroke-dasharray:3, 1.5, 0.75, 1.5;stroke-dashoffset:0"
       id="path933"
       sodipodi:cx="41.951851"
       sodipodi:cy="92.819504"
       sodipodi:expansion="1"
       sodipodi:revolution="3.0039234"
       sodipodi:radius="10.627617"
       sodipodi:argument="-21.271782"
       sodipodi:t0="0.16666068"
       d="m 43.279519,93.99188 c -0.519793,1.177981 -2.044212,1.406801 -3.085488,0.818283 -1.527614,-0.86339 -1.792262,-2.92182 -0.89583,-4.333923 1.194583,-1.881768 3.803434,-2.182023 5.582358,-0.973377 2.238332,1.520778 2.573998,4.68695 1.050924,6.830792 -1.844496,2.59627 -5.571534,2.967254 -8.079227,1.128472 -2.955054,-2.166812 -3.361314,-6.456785 -1.206019,-9.327662 2.488259,-3.31439 7.342479,-3.75591 10.576096,-1.283566 3.674109,2.809133 4.150882,8.228487 1.361114,11.824531 -3.129607,4.0341 -9.114723,4.54613 -13.072966,1.43866 -4.394294,-3.449791 -4.941574,-10.001129 -1.516208,-14.3214 0.0455,-0.05739 0.0916,-0.114304 0.138275,-0.170737"
       transform="rotate(62.016202,41.072655,93.698578)" />
  </g>
</svg>
